<?xml version="1.0" encoding="iso-8859-1"?>
<!-- Generator: Adobe Illustrator 19.0.0, SVG Export Plug-In . SVG Version: 6.00 Build 0)  -->
<svg version="1.1" id="Layer_1" xmlns="http://www.w3.org/2000/svg" xmlns:xlink="http://www.w3.org/1999/xlink" x="0px" y="0px"
	 viewBox="0 0 297 297" style="enable-background:new 0 0 297 297;" xml:space="preserve">
<g>
	<g>
		<g>
			<g>
				<circle style="fill:#345065;" cx="148.5" cy="148.5" r="148.5"/>
			</g>
		</g>
	</g>
	<path style="fill:#243D4C;" d="M253.292,111.535L44.244,185.97l110.875,110.875c76.775-3.369,138.404-65.026,141.73-141.812
		L253.292,111.535z"/>
	<g>
		<rect x="66" y="99" style="fill:#BDC3C7;" width="16.5" height="16.5"/>
	</g>
	<g>
		<path style="fill:#7F8C8D;" d="M78.083,198h-7.667c-2.439,0-4.417-1.977-4.417-4.417v-7.667c0-2.439,1.977-4.417,4.417-4.417
			h7.667c2.439,0,4.416,1.977,4.416,4.417v7.667C82.5,196.023,80.523,198,78.083,198z"/>
	</g>
	<g>
		<path style="fill:#7F8C8D;" d="M226.583,198h-7.667c-2.439,0-4.417-1.977-4.417-4.417v-7.667c0-2.439,1.977-4.417,4.417-4.417
			h7.667c2.439,0,4.417,1.977,4.417,4.417v7.667C231,196.023,229.023,198,226.583,198z"/>
	</g>
	<g>
		<rect x="99" y="99" style="fill:#BDC3C7;" width="16.5" height="16.5"/>
	</g>
	<g>
		<path style="fill:#FFFFFF;" d="M52.583,189.75h191.833c6.259,0,11.333-5.074,11.333-11.333v-59.833
			c0-6.259-5.074-11.334-11.333-11.334H52.583c-6.259,0-11.333,5.074-11.333,11.334v59.833
			C41.25,184.676,46.324,189.75,52.583,189.75z"/>
	</g>
	<g>
		<rect x="57.75" y="115.5" style="fill:#BDC3C7;" width="181.5" height="66"/>
	</g>
	<g>
		<path style="fill:#17AB93;" d="M86.141,172.459H75.025c-5.804,0-10.525-4.722-10.525-10.526v-26.865
			c0-5.805,4.722-10.526,10.525-10.526H86.14c5.805,0,10.526,4.722,10.526,10.526v26.865
			C96.667,167.737,91.945,172.459,86.141,172.459z M75.025,129.541c-3.047,0-5.525,2.479-5.525,5.526v26.865
			c0,3.047,2.479,5.526,5.525,5.526H86.14c3.047,0,5.526-2.479,5.526-5.526v-26.865c0-3.047-2.479-5.526-5.526-5.526H75.025z"/>
	</g>
	<g>
		<path style="fill:#17AB93;" d="M126.891,172.459h-11.115c-5.804,0-10.525-4.722-10.525-10.526v-26.865
			c0-5.805,4.722-10.526,10.525-10.526h11.115c5.805,0,10.526,4.722,10.526,10.526v26.865
			C137.417,167.737,132.695,172.459,126.891,172.459z M115.775,129.541c-3.047,0-5.525,2.479-5.525,5.526v26.865
			c0,3.047,2.479,5.526,5.525,5.526h11.115c3.047,0,5.526-2.479,5.526-5.526v-26.865c0-3.047-2.479-5.526-5.526-5.526H115.775z"/>
	</g>
	<g>
		<path style="fill:#17AB93;" d="M181.225,172.459H170.11c-5.805,0-10.526-4.722-10.526-10.526v-26.865
			c0-5.805,4.722-10.526,10.526-10.526h11.115c5.804,0,10.525,4.722,10.525,10.526v26.865
			C191.75,167.737,187.028,172.459,181.225,172.459z M170.109,129.541c-3.047,0-5.526,2.479-5.526,5.526v26.865
			c0,3.047,2.479,5.526,5.526,5.526h11.115c3.047,0,5.525-2.479,5.525-5.526v-26.865c0-3.047-2.479-5.526-5.525-5.526H170.109z"/>
	</g>
	<g>
		<path style="fill:#17AB93;" d="M221.975,172.459H210.86c-5.805,0-10.526-4.722-10.526-10.526v-26.865
			c0-5.805,4.722-10.526,10.526-10.526h11.115c5.804,0,10.525,4.722,10.525,10.526v26.865
			C232.5,167.737,227.778,172.459,221.975,172.459z M210.859,129.541c-3.047,0-5.526,2.479-5.526,5.526v26.865
			c0,3.047,2.479,5.526,5.526,5.526h11.115c3.047,0,5.525-2.479,5.525-5.526v-26.865c0-3.047-2.479-5.526-5.525-5.526H210.859z"/>
	</g>
	<g>
		<path style="fill:#17AB93;" d="M148.497,152.5c-1.05,0-2.08-0.431-2.83-1.17c-0.74-0.75-1.17-1.78-1.17-2.83s0.43-2.09,1.17-2.83
			c0.75-0.74,1.78-1.17,2.83-1.17c1.06,0,2.09,0.43,2.83,1.17c0.739,0.74,1.17,1.78,1.17,2.83s-0.431,2.08-1.17,2.83
			C150.577,152.069,149.547,152.5,148.497,152.5z"/>
	</g>
	<g>
		<path style="fill:#17AB93;" d="M148.497,169c-1.05,0-2.08-0.431-2.83-1.17c-0.74-0.75-1.17-1.78-1.17-2.83s0.43-2.09,1.17-2.83
			c0.75-0.74,1.78-1.17,2.83-1.17c1.06,0,2.09,0.43,2.83,1.17c0.739,0.74,1.17,1.78,1.17,2.83s-0.431,2.08-1.17,2.83
			C150.587,168.569,149.547,169,148.497,169z"/>
	</g>
</g>
<g>
</g>
<g>
</g>
<g>
</g>
<g>
</g>
<g>
</g>
<g>
</g>
<g>
</g>
<g>
</g>
<g>
</g>
<g>
</g>
<g>
</g>
<g>
</g>
<g>
</g>
<g>
</g>
<g>
</g>
</svg>
